<svg xmlns="http://www.w3.org/2000/svg" xmlns:xlink="http://www.w3.org/1999/xlink" width="500" zoomAndPan="magnify" viewBox="0 0 375 374.999991" height="500" preserveAspectRatio="xMidYMid meet" version="1.0"><defs><clipPath id="cf326fc8b6"><path d="M 150.78125 37.886719 L 224.195312 37.886719 L 224.195312 337.355469 L 150.78125 337.355469 Z M 150.78125 37.886719 " clip-rule="nonzero"/></clipPath></defs><rect x="-37.5" width="450" fill="#032541" y="-37.499999" height="449.999989" fill-opacity="1"/><g clip-path="url(#cf326fc8b6)"><path fill="#ffffff" d="M 220.289062 52.679688 L 214.703125 52.679688 L 214.703125 44.636719 L 220.289062 44.636719 Z M 220.289062 75.101562 L 214.703125 75.101562 L 214.703125 67.058594 L 220.289062 67.058594 Z M 220.289062 97.519531 L 214.703125 97.519531 L 214.703125 89.476562 L 220.289062 89.476562 Z M 220.289062 119.9375 L 214.703125 119.9375 L 214.703125 111.898438 L 220.289062 111.898438 Z M 220.289062 142.382812 L 214.703125 142.382812 L 214.703125 134.316406 L 220.289062 134.316406 Z M 220.289062 164.800781 L 214.703125 164.800781 L 214.703125 156.734375 L 220.289062 156.734375 Z M 220.289062 187.222656 L 214.703125 187.222656 L 214.703125 179.15625 L 220.289062 179.15625 Z M 220.289062 209.640625 L 214.703125 209.640625 L 214.703125 201.574219 L 220.289062 201.574219 Z M 220.289062 232.0625 L 214.703125 232.0625 L 214.703125 223.992188 L 220.289062 223.992188 Z M 220.289062 254.480469 L 214.703125 254.480469 L 214.703125 246.410156 L 220.289062 246.410156 Z M 220.289062 276.898438 L 214.703125 276.898438 L 214.703125 268.828125 L 220.289062 268.828125 Z M 220.289062 299.320312 L 214.703125 299.320312 L 214.703125 291.25 L 220.289062 291.25 Z M 220.289062 321.738281 L 214.703125 321.738281 L 214.703125 313.667969 L 220.289062 313.667969 Z M 210.980469 103.632812 C 210.980469 105.292969 209.632812 106.640625 207.972656 106.640625 L 166.972656 106.640625 C 165.3125 106.640625 163.96875 105.292969 163.96875 103.632812 L 163.96875 43.480469 C 163.96875 41.820312 165.3125 40.476562 166.972656 40.476562 L 207.972656 40.476562 C 209.632812 40.476562 210.980469 41.820312 210.980469 43.480469 Z M 210.980469 180.742188 C 210.980469 182.402344 209.632812 183.746094 207.972656 183.746094 L 166.972656 183.746094 C 165.3125 183.746094 163.96875 182.402344 163.96875 180.742188 L 163.96875 117.40625 C 163.96875 115.746094 165.3125 114.398438 166.972656 114.398438 L 207.972656 114.398438 C 209.632812 114.398438 210.980469 115.746094 210.980469 117.40625 Z M 210.980469 257.84375 C 210.980469 259.503906 209.632812 260.851562 207.972656 260.851562 L 166.972656 260.851562 C 165.3125 260.851562 163.96875 259.503906 163.96875 257.84375 L 163.96875 194.511719 C 163.96875 192.847656 165.3125 191.503906 166.972656 191.503906 L 207.972656 191.503906 C 209.632812 191.503906 210.980469 192.847656 210.980469 194.511719 Z M 210.980469 331.761719 C 210.980469 333.421875 209.632812 334.769531 207.972656 334.769531 L 166.972656 334.769531 C 165.3125 334.769531 163.96875 333.421875 163.96875 331.761719 L 163.96875 271.617188 C 163.96875 269.957031 165.3125 268.609375 166.972656 268.609375 L 207.972656 268.609375 C 209.632812 268.609375 210.980469 269.957031 210.980469 271.617188 Z M 160.140625 52.679688 L 154.53125 52.679688 L 154.53125 44.636719 L 160.140625 44.636719 Z M 160.140625 75.101562 L 154.53125 75.101562 L 154.53125 67.058594 L 160.140625 67.058594 Z M 160.140625 97.519531 L 154.53125 97.519531 L 154.53125 89.476562 L 160.140625 89.476562 Z M 160.140625 119.9375 L 154.53125 119.9375 L 154.53125 111.898438 L 160.140625 111.898438 Z M 160.140625 142.382812 L 154.53125 142.382812 L 154.53125 134.316406 L 160.140625 134.316406 Z M 160.140625 164.800781 L 154.53125 164.800781 L 154.53125 156.734375 L 160.140625 156.734375 Z M 160.140625 187.222656 L 154.53125 187.222656 L 154.53125 179.15625 L 160.140625 179.15625 Z M 160.140625 209.640625 L 154.53125 209.640625 L 154.53125 201.574219 L 160.140625 201.574219 Z M 160.140625 232.0625 L 154.53125 232.0625 L 154.53125 223.992188 L 160.140625 223.992188 Z M 160.140625 254.480469 L 154.53125 254.480469 L 154.53125 246.410156 L 160.140625 246.410156 Z M 160.140625 276.898438 L 154.53125 276.898438 L 154.53125 268.828125 L 160.140625 268.828125 Z M 160.140625 299.320312 L 154.53125 299.320312 L 154.53125 291.25 L 160.140625 291.25 Z M 160.140625 321.738281 L 154.53125 321.738281 L 154.53125 313.667969 L 160.140625 313.667969 Z M 213.566406 37.890625 L 150.78125 37.890625 L 150.78125 337.355469 L 224.191406 337.355469 L 224.191406 37.890625 L 213.566406 37.890625 " fill-opacity="1" fill-rule="nonzero"/></g></svg>