<svg xmlns="http://www.w3.org/2000/svg" xmlns:xlink="http://www.w3.org/1999/xlink" width="500" zoomAndPan="magnify" viewBox="0 0 375 374.999991" height="500" preserveAspectRatio="xMidYMid meet" version="1.0"><defs><clipPath id="178bec9d4e"><path d="M 150.78125 37.886719 L 224.195312 37.886719 L 224.195312 337.355469 L 150.78125 337.355469 Z M 150.78125 37.886719 " clip-rule="nonzero"/></clipPath></defs><path fill="#032541" d="M 375 187.5 C 375 190.570312 374.925781 193.636719 374.773438 196.699219 C 374.625 199.765625 374.398438 202.824219 374.097656 205.878906 C 373.796875 208.933594 373.421875 211.976562 372.96875 215.011719 C 372.519531 218.046875 371.996094 221.070312 371.398438 224.078125 C 370.796875 227.089844 370.125 230.082031 369.378906 233.058594 C 368.636719 236.035156 367.816406 238.992188 366.925781 241.929688 C 366.035156 244.863281 365.074219 247.777344 364.039062 250.667969 C 363.003906 253.554688 361.902344 256.417969 360.726562 259.253906 C 359.554688 262.089844 358.308594 264.890625 356.996094 267.667969 C 355.6875 270.441406 354.304688 273.179688 352.859375 275.886719 C 351.414062 278.59375 349.902344 281.261719 348.324219 283.894531 C 346.746094 286.527344 345.105469 289.117188 343.402344 291.667969 C 341.695312 294.222656 339.929688 296.730469 338.101562 299.195312 C 336.273438 301.660156 334.386719 304.078125 332.4375 306.449219 C 330.492188 308.820312 328.488281 311.144531 326.429688 313.417969 C 324.367188 315.691406 322.253906 317.914062 320.082031 320.082031 C 317.914062 322.253906 315.691406 324.367188 313.417969 326.429688 C 311.144531 328.488281 308.820312 330.492188 306.449219 332.4375 C 304.078125 334.386719 301.660156 336.273438 299.195312 338.101562 C 296.730469 339.929688 294.222656 341.695312 291.667969 343.402344 C 289.117188 345.105469 286.527344 346.746094 283.894531 348.324219 C 281.261719 349.902344 278.59375 351.414062 275.886719 352.859375 C 273.179688 354.308594 270.441406 355.6875 267.667969 356.996094 C 264.890625 358.308594 262.089844 359.554688 259.253906 360.726562 C 256.417969 361.902344 253.554688 363.003906 250.667969 364.039062 C 247.777344 365.074219 244.863281 366.035156 241.929688 366.925781 C 238.992188 367.816406 236.035156 368.636719 233.058594 369.378906 C 230.082031 370.125 227.089844 370.796875 224.078125 371.398438 C 221.070312 371.996094 218.046875 372.519531 215.011719 372.96875 C 211.976562 373.421875 208.933594 373.796875 205.878906 374.097656 C 202.824219 374.398438 199.765625 374.625 196.699219 374.773438 C 193.636719 374.925781 190.570312 375 187.5 375 C 184.429688 375 181.363281 374.925781 178.300781 374.773438 C 175.234375 374.625 172.175781 374.398438 169.121094 374.097656 C 166.066406 373.796875 163.023438 373.421875 159.988281 372.96875 C 156.953125 372.519531 153.929688 371.996094 150.921875 371.398438 C 147.910156 370.796875 144.917969 370.125 141.941406 369.378906 C 138.964844 368.636719 136.007812 367.816406 133.070312 366.925781 C 130.136719 366.035156 127.222656 365.074219 124.332031 364.039062 C 121.445312 363.003906 118.582031 361.902344 115.746094 360.726562 C 112.910156 359.554688 110.105469 358.308594 107.332031 356.996094 C 104.558594 355.6875 101.820312 354.308594 99.113281 352.859375 C 96.40625 351.414062 93.738281 349.902344 91.105469 348.324219 C 88.472656 346.746094 85.882812 345.105469 83.332031 343.402344 C 80.777344 341.695312 78.269531 339.929688 75.804688 338.101562 C 73.339844 336.273438 70.921875 334.386719 68.550781 332.4375 C 66.179688 330.492188 63.855469 328.488281 61.582031 326.429688 C 59.308594 324.367188 57.085938 322.253906 54.917969 320.082031 C 52.746094 317.914062 50.632812 315.691406 48.570312 313.417969 C 46.511719 311.144531 44.507812 308.820312 42.558594 306.449219 C 40.613281 304.078125 38.726562 301.660156 36.898438 299.195312 C 35.070312 296.730469 33.304688 294.222656 31.597656 291.667969 C 29.894531 289.117188 28.253906 286.527344 26.675781 283.894531 C 25.097656 281.261719 23.585938 278.59375 22.140625 275.886719 C 20.691406 273.179688 19.3125 270.441406 18.003906 267.667969 C 16.691406 264.890625 15.445312 262.089844 14.273438 259.253906 C 13.097656 256.417969 11.996094 253.554688 10.960938 250.667969 C 9.925781 247.777344 8.964844 244.863281 8.074219 241.929688 C 7.183594 238.992188 6.363281 236.035156 5.617188 233.058594 C 4.875 230.082031 4.203125 227.089844 3.601562 224.078125 C 3.003906 221.070312 2.480469 218.046875 2.03125 215.011719 C 1.578125 211.976562 1.203125 208.933594 0.902344 205.878906 C 0.601562 202.824219 0.375 199.765625 0.226562 196.699219 C 0.0742188 193.636719 0 190.570312 0 187.5 C 0 184.429688 0.0742188 181.363281 0.226562 178.300781 C 0.375 175.234375 0.601562 172.175781 0.902344 169.121094 C 1.203125 166.066406 1.578125 163.023438 2.03125 159.988281 C 2.480469 156.953125 3.003906 153.929688 3.601562 150.921875 C 4.203125 147.910156 4.875 144.917969 5.617188 141.941406 C 6.363281 138.964844 7.183594 136.007812 8.074219 133.070312 C 8.964844 130.136719 9.925781 127.222656 10.960938 124.332031 C 11.996094 121.445312 13.097656 118.582031 14.273438 115.746094 C 15.445312 112.910156 16.691406 110.105469 18.003906 107.332031 C 19.3125 104.558594 20.691406 101.820312 22.140625 99.113281 C 23.585938 96.40625 25.097656 93.738281 26.675781 91.105469 C 28.253906 88.472656 29.894531 85.882812 31.597656 83.332031 C 33.304688 80.777344 35.070312 78.269531 36.898438 75.804688 C 38.726562 73.339844 40.613281 70.921875 42.558594 68.550781 C 44.507812 66.179688 46.511719 63.855469 48.570312 61.582031 C 50.632812 59.308594 52.746094 57.085938 54.917969 54.917969 C 57.085938 52.746094 59.308594 50.632812 61.582031 48.570312 C 63.855469 46.511719 66.179688 44.507812 68.550781 42.558594 C 70.921875 40.613281 73.339844 38.726562 75.804688 36.898438 C 78.269531 35.070312 80.777344 33.304688 83.332031 31.597656 C 85.882812 29.894531 88.472656 28.253906 91.105469 26.675781 C 93.738281 25.097656 96.40625 23.585938 99.113281 22.140625 C 101.820312 20.691406 104.558594 19.3125 107.332031 18.003906 C 110.105469 16.691406 112.910156 15.445312 115.746094 14.273438 C 118.582031 13.097656 121.445312 11.996094 124.332031 10.960938 C 127.222656 9.925781 130.136719 8.964844 133.070312 8.074219 C 136.007812 7.183594 138.964844 6.363281 141.941406 5.617188 C 144.917969 4.875 147.910156 4.203125 150.921875 3.601562 C 153.929688 3.003906 156.953125 2.480469 159.988281 2.03125 C 163.023438 1.578125 166.066406 1.203125 169.121094 0.902344 C 172.175781 0.601562 175.234375 0.375 178.300781 0.226562 C 181.363281 0.0742188 184.429688 0 187.5 0 C 190.570312 0 193.636719 0.0742188 196.699219 0.226562 C 199.765625 0.375 202.824219 0.601562 205.878906 0.902344 C 208.933594 1.203125 211.976562 1.578125 215.011719 2.03125 C 218.046875 2.480469 221.070312 3.003906 224.078125 3.601562 C 227.089844 4.203125 230.082031 4.875 233.058594 5.617188 C 236.035156 6.363281 238.992188 7.183594 241.929688 8.074219 C 244.863281 8.964844 247.777344 9.925781 250.667969 10.960938 C 253.554688 11.996094 256.417969 13.097656 259.253906 14.273438 C 262.089844 15.445312 264.890625 16.691406 267.667969 18.003906 C 270.441406 19.3125 273.179688 20.691406 275.886719 22.140625 C 278.59375 23.585938 281.261719 25.097656 283.894531 26.675781 C 286.527344 28.253906 289.117188 29.894531 291.667969 31.597656 C 294.222656 33.304688 296.730469 35.070312 299.195312 36.898438 C 301.660156 38.726562 304.078125 40.613281 306.449219 42.558594 C 308.820312 44.507812 311.144531 46.511719 313.417969 48.570312 C 315.691406 50.632812 317.914062 52.746094 320.082031 54.917969 C 322.253906 57.085938 324.367188 59.308594 326.429688 61.582031 C 328.488281 63.855469 330.492188 66.179688 332.4375 68.550781 C 334.386719 70.921875 336.273438 73.339844 338.101562 75.804688 C 339.929688 78.269531 341.695312 80.777344 343.402344 83.332031 C 345.105469 85.882812 346.746094 88.472656 348.324219 91.105469 C 349.902344 93.738281 351.414062 96.40625 352.859375 99.113281 C 354.304688 101.820312 355.6875 104.558594 356.996094 107.332031 C 358.308594 110.105469 359.554688 112.910156 360.726562 115.746094 C 361.902344 118.582031 363.003906 121.445312 364.039062 124.332031 C 365.074219 127.222656 366.035156 130.136719 366.925781 133.070312 C 367.816406 136.007812 368.636719 138.964844 369.378906 141.941406 C 370.125 144.917969 370.796875 147.910156 371.398438 150.921875 C 371.996094 153.929688 372.519531 156.953125 372.96875 159.988281 C 373.421875 163.023438 373.796875 166.066406 374.097656 169.121094 C 374.398438 172.175781 374.625 175.234375 374.773438 178.300781 C 374.925781 181.363281 375 184.429688 375 187.5 Z M 375 187.5 " fill-opacity="1" fill-rule="nonzero"/><g clip-path="url(#178bec9d4e)"><path fill="#ffffff" d="M 220.289062 52.679688 L 214.703125 52.679688 L 214.703125 44.636719 L 220.289062 44.636719 Z M 220.289062 75.101562 L 214.703125 75.101562 L 214.703125 67.058594 L 220.289062 67.058594 Z M 220.289062 97.519531 L 214.703125 97.519531 L 214.703125 89.476562 L 220.289062 89.476562 Z M 220.289062 119.9375 L 214.703125 119.9375 L 214.703125 111.898438 L 220.289062 111.898438 Z M 220.289062 142.382812 L 214.703125 142.382812 L 214.703125 134.316406 L 220.289062 134.316406 Z M 220.289062 164.800781 L 214.703125 164.800781 L 214.703125 156.734375 L 220.289062 156.734375 Z M 220.289062 187.222656 L 214.703125 187.222656 L 214.703125 179.15625 L 220.289062 179.15625 Z M 220.289062 209.640625 L 214.703125 209.640625 L 214.703125 201.574219 L 220.289062 201.574219 Z M 220.289062 232.0625 L 214.703125 232.0625 L 214.703125 223.992188 L 220.289062 223.992188 Z M 220.289062 254.480469 L 214.703125 254.480469 L 214.703125 246.410156 L 220.289062 246.410156 Z M 220.289062 276.898438 L 214.703125 276.898438 L 214.703125 268.828125 L 220.289062 268.828125 Z M 220.289062 299.320312 L 214.703125 299.320312 L 214.703125 291.25 L 220.289062 291.25 Z M 220.289062 321.738281 L 214.703125 321.738281 L 214.703125 313.667969 L 220.289062 313.667969 Z M 210.980469 103.632812 C 210.980469 105.292969 209.632812 106.640625 207.972656 106.640625 L 166.972656 106.640625 C 165.3125 106.640625 163.96875 105.292969 163.96875 103.632812 L 163.96875 43.480469 C 163.96875 41.820312 165.3125 40.476562 166.972656 40.476562 L 207.972656 40.476562 C 209.632812 40.476562 210.980469 41.820312 210.980469 43.480469 Z M 210.980469 180.742188 C 210.980469 182.402344 209.632812 183.746094 207.972656 183.746094 L 166.972656 183.746094 C 165.3125 183.746094 163.96875 182.402344 163.96875 180.742188 L 163.96875 117.40625 C 163.96875 115.746094 165.3125 114.398438 166.972656 114.398438 L 207.972656 114.398438 C 209.632812 114.398438 210.980469 115.746094 210.980469 117.40625 Z M 210.980469 257.84375 C 210.980469 259.503906 209.632812 260.851562 207.972656 260.851562 L 166.972656 260.851562 C 165.3125 260.851562 163.96875 259.503906 163.96875 257.84375 L 163.96875 194.511719 C 163.96875 192.847656 165.3125 191.503906 166.972656 191.503906 L 207.972656 191.503906 C 209.632812 191.503906 210.980469 192.847656 210.980469 194.511719 Z M 210.980469 331.761719 C 210.980469 333.421875 209.632812 334.769531 207.972656 334.769531 L 166.972656 334.769531 C 165.3125 334.769531 163.96875 333.421875 163.96875 331.761719 L 163.96875 271.617188 C 163.96875 269.957031 165.3125 268.609375 166.972656 268.609375 L 207.972656 268.609375 C 209.632812 268.609375 210.980469 269.957031 210.980469 271.617188 Z M 160.140625 52.679688 L 154.53125 52.679688 L 154.53125 44.636719 L 160.140625 44.636719 Z M 160.140625 75.101562 L 154.53125 75.101562 L 154.53125 67.058594 L 160.140625 67.058594 Z M 160.140625 97.519531 L 154.53125 97.519531 L 154.53125 89.476562 L 160.140625 89.476562 Z M 160.140625 119.9375 L 154.53125 119.9375 L 154.53125 111.898438 L 160.140625 111.898438 Z M 160.140625 142.382812 L 154.53125 142.382812 L 154.53125 134.316406 L 160.140625 134.316406 Z M 160.140625 164.800781 L 154.53125 164.800781 L 154.53125 156.734375 L 160.140625 156.734375 Z M 160.140625 187.222656 L 154.53125 187.222656 L 154.53125 179.15625 L 160.140625 179.15625 Z M 160.140625 209.640625 L 154.53125 209.640625 L 154.53125 201.574219 L 160.140625 201.574219 Z M 160.140625 232.0625 L 154.53125 232.0625 L 154.53125 223.992188 L 160.140625 223.992188 Z M 160.140625 254.480469 L 154.53125 254.480469 L 154.53125 246.410156 L 160.140625 246.410156 Z M 160.140625 276.898438 L 154.53125 276.898438 L 154.53125 268.828125 L 160.140625 268.828125 Z M 160.140625 299.320312 L 154.53125 299.320312 L 154.53125 291.25 L 160.140625 291.25 Z M 160.140625 321.738281 L 154.53125 321.738281 L 154.53125 313.667969 L 160.140625 313.667969 Z M 213.566406 37.890625 L 150.78125 37.890625 L 150.78125 337.355469 L 224.191406 337.355469 L 224.191406 37.890625 L 213.566406 37.890625 " fill-opacity="1" fill-rule="nonzero"/></g></svg>